<svg xmlns="http://www.w3.org/2000/svg" width="29.402" height="28.178" viewBox="0 0 29.402 28.178"><defs><style>.a{fill:#032336;}</style></defs><path class="a" d="M14.7.5A14.574,14.574,0,0,0,0,14.946,14.47,14.47,0,0,0,10.052,28.653c.735.136,1-.311,1-.695,0-.343-.012-1.252-.018-2.456-4.089.871-4.952-1.938-4.952-1.938A3.851,3.851,0,0,0,4.451,21.45c-1.332-.9.1-.877.1-.877a3.075,3.075,0,0,1,2.252,1.488,3.166,3.166,0,0,0,4.282,1.2,3.059,3.059,0,0,1,.931-1.932c-3.265-.361-6.7-1.6-6.7-7.139a5.519,5.519,0,0,1,1.513-3.876,5.054,5.054,0,0,1,.129-3.824s1.231-.387,4.043,1.481a14.1,14.1,0,0,1,7.351,0c2.793-1.868,4.024-1.481,4.024-1.481a5.194,5.194,0,0,1,.147,3.824,5.542,5.542,0,0,1,1.507,3.876c0,5.55-3.436,6.771-6.707,7.126a3.428,3.428,0,0,1,.992,2.673c0,1.933-.018,3.487-.018,3.956,0,.379.257.831,1.011.686A14.427,14.427,0,0,0,29.4,14.946,14.576,14.576,0,0,0,14.7.5Z" transform="translate(0 -0.5)"/></svg>