<svg xmlns="http://www.w3.org/2000/svg" width="29.034" height="29.034" viewBox="0 0 29.034 29.034"><defs><style>.a{fill:#032336;}</style></defs><path class="a" d="M19.961,0H9.073A9.074,9.074,0,0,0,0,9.073V19.961a9.074,9.074,0,0,0,9.073,9.073H19.961a9.074,9.074,0,0,0,9.073-9.073V9.073A9.074,9.074,0,0,0,19.961,0Zm6.351,19.961a6.358,6.358,0,0,1-6.351,6.351H9.073a6.358,6.358,0,0,1-6.351-6.351V9.073A6.358,6.358,0,0,1,9.073,2.722H19.961a6.358,6.358,0,0,1,6.351,6.351Z"/><g transform="translate(7.259 7.259)"><path class="a" d="M135.259,128a7.259,7.259,0,1,0,7.259,7.259A7.259,7.259,0,0,0,135.259,128Zm0,11.8a4.537,4.537,0,1,1,4.537-4.537A4.543,4.543,0,0,1,135.259,139.8Z" transform="translate(-128 -128)"/></g><g transform="translate(21.353 5.747)"><ellipse class="a" cx="0.967" cy="0.967" rx="0.967" ry="0.967"/></g></svg>