<svg xmlns="http://www.w3.org/2000/svg" width="31.072" height="29.699" viewBox="0 0 31.072 29.699"><defs><style>.a{fill:#032336;}</style></defs><path class="a" d="M3.768-.668a3.472,3.472,0,1,0-.087,6.924h.043A3.473,3.473,0,1,0,3.768-.668Zm0,0" transform="translate(0 0.668)"/><path class="a" d="M8.109,198.313H14.77v20.039H8.109Zm0,0" transform="translate(-7.716 -188.652)"/><path class="a" d="M233.878,188.625c-3.593,0-6,3.376-6,3.376V189.1h-6.661v20.039h6.661V197.944a4.565,4.565,0,0,1,.219-1.626,3.646,3.646,0,0,1,3.417-2.436c2.41,0,3.374,1.838,3.374,4.532v10.72h6.66v-11.49C241.547,191.489,238.26,188.625,233.878,188.625Zm0,0" transform="translate(-210.475 -179.435)"/></svg>